inDegrees=no
num_controls=7
num_derivatives=13
num_iterations=123
num_multipliers=7
num_parameters=0
num_slacks=7
num_states=26
objective=5.627120
objective_accelerations=0.827506
objective_balance=0.039746
objective_effort=0.239549
objective_height=4.398217
objective_ligament=0.122100
solver_duration=1352.245110
status=Solve_Succeeded
success=true
DataType=double
version=3
OpenSimVersion=4.4-2022-07-23-0e9fedc
endheader
time	/jointset/ground_pelvis/pelvis_tilt/value	/jointset/ground_pelvis/pelvis_tx/value	/jointset/ground_pelvis/pelvis_ty/value	/jointset/hip_l/hip_flexion_l/value	/jointset/hip_l/hip_adduction_l/value	/jointset/hip_l/hip_rotation_l/value	/jointset/back/lumbar_extension/value	/jointset/patellofemoral_l/patellar_flexion_l/value	/jointset/knee_l/knee_flexion_l/value	/jointset/knee_l/knee_adduction_l/value	/jointset/knee_l/knee_rotation_l/value	/jointset/ankle_l/ankle_angle_l/value	/jointset/subtalar_l/subtalar_angle_l/value	/jointset/ground_pelvis/pelvis_tilt/speed	/jointset/ground_pelvis/pelvis_tx/speed	/jointset/ground_pelvis/pelvis_ty/speed	/jointset/hip_l/hip_flexion_l/speed	/jointset/hip_l/hip_adduction_l/speed	/jointset/hip_l/hip_rotation_l/speed	/jointset/back/lumbar_extension/speed	/jointset/patellofemoral_l/patellar_flexion_l/speed	/jointset/knee_l/knee_flexion_l/speed	/jointset/knee_l/knee_adduction_l/speed	/jointset/knee_l/knee_rotation_l/speed	/jointset/ankle_l/ankle_angle_l/speed	/jointset/subtalar_l/subtalar_angle_l/speed	/forceset/tau_hip_flexion_l	/forceset/tau_hip_adduction_l	/forceset/tau_hip_rotation_l	/forceset/tau_knee_flexion_l	/forceset/tau_ankle_angle_l	/forceset/tau_subtalar_angle_l	/forceset/tau_lumbar_extension	lambda_cid13_p0	lambda_cid13_p1	lambda_cid13_p2	lambda_cid13_p3	lambda_cid13_p4	lambda_cid13_p5	lambda_cid14_p0	/jointset/ground_pelvis/pelvis_tilt/accel	/jointset/ground_pelvis/pelvis_tx/accel	/jointset/ground_pelvis/pelvis_ty/accel	/jointset/hip_l/hip_flexion_l/accel	/jointset/hip_l/hip_adduction_l/accel	/jointset/hip_l/hip_rotation_l/accel	/jointset/back/lumbar_extension/accel	/jointset/patellofemoral_l/patellar_flexion_l/accel	/jointset/knee_l/knee_flexion_l/accel	/jointset/knee_l/knee_adduction_l/accel	/jointset/knee_l/knee_rotation_l/accel	/jointset/ankle_l/ankle_angle_l/accel	/jointset/subtalar_l/subtalar_angle_l/accel	gamma_cid13_p0	gamma_cid13_p1	gamma_cid13_p2	gamma_cid13_p3	gamma_cid13_p4	gamma_cid13_p5	gamma_cid14_p0
1	-0.844203018284522	-0.154743279349796	0.5616682800039129	2.181660566497957	-0.3256170737294908	0.1021804729386437	-0.4363205016163059	1.249631530480793	1.249631530481852	0.01636305935585477	-0.1745054515373693	0.05686792227750243	0.1121657290485988	-0.1704457870745699	-0.00076977836765642	0.03466127851767527	0.02063224450151223	-0.009555765642303668	-0.05963266956335473	3.038600135391098e-05	-0.1731273062549855	-0.1731273062549963	-0.01007093322999895	1.070469742120276e-05	-0.03613322982290872	-0.02114504645931903	-0.3906643918912635	-0.01089264918678874	-0.008260312749955194	-0.1594758983997259	0.1000642540199377	0.008158700572326172	0.2866066425812419	0.6351136885299136	-0.1452368743414067	-4.266309368254353	-3.909652045904551	-555.0036300102249	-63.5460097243079	-0.02539900770247993	2.914893251475677	0.6084102519153998	2.054642034949707	-8.010295692277115	-0.3853178289077376	-1.478721933837553	-0.02232445990811299	-4.499019827516721	-4.499019827516861	-0.4948816270788831	-0.03318883283216882	0.2878279971317962	-0.29843751281405	-1.310691447105452e-08	-7.226480676345785e-08	-9.649503668587296e-09	-2.548709169485362e-09	-1.424018362822135e-08	3.030575201632528e-08	-1.654969828493825e-08
1.01	-0.8457626002728864	-0.154720524605396	0.5621174543269002	2.181467365022595	-0.3257309158602061	0.1015111237518436	-0.4363200563804176	1.247675364227414	1.247675364228274	0.0162380780732183	-0.1745053861913097	0.05652098354227817	0.1119403986654528	-0.1414420944259477	0.005336890862297019	0.05516717292329885	-0.05928836609455614	-0.01320393088454574	-0.07423099260353634	5.620609448839258e-05	-0.2180973191280334	-0.2180973191280434	-0.0149247210469432	2.592663987216614e-06	-0.03325790321735857	-0.02391266203793245	-0.3910333785979143	-0.01075946173403606	-0.008257587566128993	-0.1588477011474843	0.1001483478274657	0.008282883013555271	0.286827257036267	0.6867775482174248	-0.2142647460158057	-4.248394671497378	-4.218517665681887	-554.9756750189398	-63.52387697616253	-0.02632282482079906	2.897381810028919	0.6142183697408337	2.047596953723838	-7.985321051898474	-0.3532458398789398	-1.449480167222367	0.01466698601401113	-4.494694191716274	-4.494694191716542	-0.4805573896716013	0.01541248932826817	0.2868711266424671	-0.2646525444190058	-1.461139152964065e-08	-8.463193001291696e-08	-1.744183598301637e-08	-7.105296131580422e-09	-2.101029386022591e-08	4.573670162645602e-08	-2.012026520725734e-08
1.02	-0.8470312904270397	-0.1546362185464561	0.5627714943560148	2.180474481979359	-0.3258809756369492	0.10069597279914	-0.4363194265954493	1.245269757410401	1.2452697574111	0.01606457290670441	-0.1745053949900195	0.05620269529998593	0.1116876463337138	-0.1122674202384312	0.01154048454030806	0.07563441974323364	-0.1393040690357179	-0.01679929484666084	-0.08879302276826262	6.729587118150001e-05	-0.2630154189817533	-0.2630154189817622	-0.01977571009071422	-4.124252344663968e-06	-0.03040313123676715	-0.0266294361779008	-0.3914023653049435	-0.01062627428119302	-0.008254862380327072	-0.1582195038950101	0.1002324416351226	0.008407065454899389	0.2870478714908091	0.735330334940768	-0.2831962518193704	-4.229982835133409	-4.543734123584528	-555.0224733199591	-63.48999575574397	-0.02809614329619815	2.949089559254915	0.6277951415266622	2.046912517811789	-8.029314161295495	-0.3747575728823849	-1.471463358746489	-0.0252705231962878	-4.488637223651001	-4.488637223651102	-0.4943218724442457	-0.03290980941185644	0.2837170721395422	-0.2882692250852195	-1.437625999594319e-08	-9.680596841662099e-08	-2.645012868956085e-08	-1.561525210461055e-08	-2.543153787858093e-08	5.89743182752597e-08	-2.35341713216259e-08
1.03	-0.8480073897587556	-0.1544893618825368	0.5636299331929199	2.178681131715285	-0.3260666920014402	0.09973542394187238	-0.4363187335345922	1.242415304562059	1.242415304562495	0.01584256703894618	-0.1745054729741159	0.05591277596174519	0.1114079890040561	-0.08292477788478497	0.01785007433355082	0.0960389893261446	-0.2193660344704924	-0.02033013474319294	-0.1033078604912774	7.10819596452662e-05	-0.3078588038233183	-0.3078588038233208	-0.02462184387969376	-1.014836897904465e-05	-0.02759086673379297	-0.02929050823153112	-0.3914156761049402	-0.01043137582452982	-0.008236304806505576	-0.157554735891028	0.1002962203531352	0.008619146718445951	0.2870733821327881	0.7999488924809087	-0.3932453336229074	-4.204867473569792	-4.89029385041404	-554.7793995848273	-63.50937715253304	-0.03113306654548031	2.930997232580697	0.6354199259786342	2.035069438991583	-7.994650547740204	-0.3401537620738085	-1.440185657266326	0.0131680237827761	-4.479731674740986	-4.479731674740376	-0.4792440294007105	0.01574866930592843	0.2784544786126638	-0.2532760876806612	-1.412337735416119e-08	-1.089780365667969e-07	-3.547082915520855e-08	-2.416554857775228e-08	-2.982881387434767e-08	7.218955397547841e-08	-2.69464788563215e-08
